<svg xmlns="http://www.w3.org/2000/svg" xmlns:xlink="http://www.w3.org/1999/xlink" width="612" height="390" viewBox="0 0 612 390"><defs><filter id="a" x="0" y="0" width="319" height="299" filterUnits="userSpaceOnUse"><feOffset dy="7" input="SourceAlpha"/><feGaussianBlur stdDeviation="8" result="b"/><feFlood flood-color="#a7a8ac" flood-opacity="0.306"/><feComposite operator="in" in2="b"/><feComposite in="SourceGraphic"/></filter><filter id="c" x="293" y="174" width="319" height="216" filterUnits="userSpaceOnUse"><feOffset dy="7" input="SourceAlpha"/><feGaussianBlur stdDeviation="8" result="d"/><feFlood flood-color="#a7a8ac" flood-opacity="0.306"/><feComposite operator="in" in2="d"/><feComposite in="SourceGraphic"/></filter><filter id="e" x="0" y="279" width="319" height="111" filterUnits="userSpaceOnUse"><feOffset dy="7" input="SourceAlpha"/><feGaussianBlur stdDeviation="8" result="f"/><feFlood flood-color="#a7a8ac" flood-opacity="0.306"/><feComposite operator="in" in2="f"/><feComposite in="SourceGraphic"/></filter><filter id="g" x="293" y="0" width="319" height="111" filterUnits="userSpaceOnUse"><feOffset dy="7" input="SourceAlpha"/><feGaussianBlur stdDeviation="8" result="h"/><feFlood flood-color="#a7a8ac" flood-opacity="0.306"/><feComposite operator="in" in2="h"/><feComposite in="SourceGraphic"/></filter><filter id="i" x="293" y="87" width="319" height="111" filterUnits="userSpaceOnUse"><feOffset dy="7" input="SourceAlpha"/><feGaussianBlur stdDeviation="8" result="j"/><feFlood flood-color="#a7a8ac" flood-opacity="0.306"/><feComposite operator="in" in2="j"/><feComposite in="SourceGraphic"/></filter></defs><g transform="translate(-364 -3092)"><g transform="translate(388 3109)"><g transform="matrix(1, 0, 0, 1, -24, -17)" filter="url(#a)"><rect width="271" height="251" rx="5" transform="translate(24 17)" fill="#fff"/></g><text transform="translate(51 14)" fill="#2c2c2c" font-size="13" font-family="Poppins-SemiBold, Poppins" font-weight="600"><tspan x="0" y="14">Które stwierdzenie jest dla </tspan><tspan x="0" y="30">Ciebie najbardziej prawdziwe</tspan></text><text transform="translate(51 66)" fill="#2c2c2c" font-size="10" font-family="Poppins-Regular, Poppins"><tspan x="0" y="0">Możesz wybrać kilka odpowiedzi</tspan></text><g transform="translate(-742 -322)"><text transform="translate(814 408.5)" fill="#2c2c2c" font-size="11" font-family="Poppins-SemiBold, Poppins" font-weight="600"><tspan x="0" y="12">Dom to wnętrza dostosowane </tspan><tspan x="0" y="27">do jego mieszkańców</tspan></text><rect width="14" height="14" rx="5" transform="translate(793 410)" fill="#fff"/><path d="M5,1.5A3.5,3.5,0,0,0,1.5,5V9A3.5,3.5,0,0,0,5,12.5H9A3.5,3.5,0,0,0,12.5,9V5A3.5,3.5,0,0,0,9,1.5H5M5,0H9a5,5,0,0,1,5,5V9a5,5,0,0,1-5,5H5A5,5,0,0,1,0,9V5A5,5,0,0,1,5,0Z" transform="translate(793 410)" fill="#1f1f1f"/></g><g transform="translate(-742 -282)"><text transform="translate(814 408.5)" fill="#2c2c2c" font-size="11" font-family="Poppins-SemiBold, Poppins" font-weight="600"><tspan x="0" y="12">Wartość nieruchomości </tspan><tspan x="0" y="27">kształtuje okolica, środek </tspan><tspan x="0" y="42">można zawsze zmienić</tspan></text><rect width="14" height="14" rx="5" transform="translate(793 410)" fill="#fff"/><path d="M5,1.5A3.5,3.5,0,0,0,1.5,5V9A3.5,3.5,0,0,0,5,12.5H9A3.5,3.5,0,0,0,12.5,9V5A3.5,3.5,0,0,0,9,1.5H5M5,0H9a5,5,0,0,1,5,5V9a5,5,0,0,1-5,5H5A5,5,0,0,1,0,9V5A5,5,0,0,1,5,0Z" transform="translate(793 410)" fill="#1f1f1f"/></g><g transform="translate(-742 -227.5)"><text transform="translate(814 408.5)" fill="#2c2c2c" font-size="11" font-family="Poppins-SemiBold, Poppins" font-weight="600"><tspan x="0" y="12">Nieruchomość pokazuje mój </tspan><tspan x="0" y="27">status i ma mi służyć</tspan></text><rect width="14" height="14" rx="5" transform="translate(793 410)" fill="#fff"/><path d="M5,1.5A3.5,3.5,0,0,0,1.5,5V9A3.5,3.5,0,0,0,5,12.5H9A3.5,3.5,0,0,0,12.5,9V5A3.5,3.5,0,0,0,9,1.5H5M5,0H9a5,5,0,0,1,5,5V9a5,5,0,0,1-5,5H5A5,5,0,0,1,0,9V5A5,5,0,0,1,5,0Z" transform="translate(793 410)" fill="#1f1f1f"/></g><path d="M9.177,0a8.1,8.1,0,0,0-7.2,3.806A1,1,0,0,0,2.2,5.181L4,6.548a1,1,0,0,0,1.39-.173c1.047-1.312,1.824-2.068,3.46-2.068,1.286,0,2.877.828,2.877,2.075,0,.943-.778,1.427-2.049,2.139-1.481.83-3.441,1.864-3.441,4.449v.409a1,1,0,0,0,1,1h3.03a1,1,0,0,0,1-1v-.241c0-1.792,5.238-1.867,5.238-6.716C16.514,2.77,12.726,0,9.177,0ZM8.758,15.615a2.9,2.9,0,1,0,2.9,2.9A2.9,2.9,0,0,0,8.758,15.615Z" transform="translate(17.401 19.5)" fill="#fcaf03"/></g><g transform="translate(681 3283)"><g transform="matrix(1, 0, 0, 1, -317, -191)" filter="url(#c)"><rect width="271" height="168" rx="5" transform="translate(317 191)" fill="#fff"/></g><text transform="translate(51 14)" fill="#2c2c2c" font-size="13" font-family="Poppins-SemiBold, Poppins" font-weight="600"><tspan x="0" y="14">Wybierz 5 przymiotników </tspan><tspan x="0" y="30">najlepiej określających Twoją </tspan><tspan x="0" y="46">idealną nieruchomość</tspan></text><rect width="198" height="40" rx="5" transform="translate(47 102)" fill="#fff"/><path d="M5,1A4,4,0,0,0,1,5V35a4,4,0,0,0,4,4H193a4,4,0,0,0,4-4V5a4,4,0,0,0-4-4H5M5,0H193a5,5,0,0,1,5,5V35a5,5,0,0,1-5,5H5a5,5,0,0,1-5-5V5A5,5,0,0,1,5,0Z" transform="translate(47 102)" fill="#e3e3e3"/><text transform="translate(51 84)" fill="#2c2c2c" font-size="10" font-family="Poppins-Regular, Poppins"><tspan x="0" y="0">Odpowiedzi podaj po przecinku</tspan></text><path d="M6.444,22.263a3.389,3.389,0,0,0,2.373-1.079A3.38,3.38,0,0,0,9.8,18.768a3.49,3.49,0,0,0,3.337,3.495A3.49,3.49,0,0,0,9.8,25.758a3.321,3.321,0,0,0-.978-2.416A3.389,3.389,0,0,0,6.444,22.263ZM9.8,11.908a6.61,6.61,0,0,0,4.617-2.114,6.584,6.584,0,0,0,1.9-4.717,6.584,6.584,0,0,0,1.9,4.717,6.675,6.675,0,0,0,4.631,2.114,6.666,6.666,0,0,0-3.294,1.021,6.911,6.911,0,0,0-2.373,2.488,6.763,6.763,0,0,0-.863,3.351,6.617,6.617,0,0,0-1.9-4.732A6.567,6.567,0,0,0,9.8,11.908ZM14.57,27.4a5.137,5.137,0,0,0,4.9-5.134,5.138,5.138,0,0,0,4.89,5.134,5.138,5.138,0,0,0-4.89,5.134,4.953,4.953,0,0,0-1.424-3.552A5.038,5.038,0,0,0,14.57,27.4Zm9.794-6.817a5.113,5.113,0,0,0,4.876-5.149,5.137,5.137,0,0,0,4.9,5.134,5.137,5.137,0,0,0-4.9,5.134,5.087,5.087,0,0,0-4.876-5.12Z" transform="translate(6.556 11.468)" fill="#fcaf03"/></g><g transform="translate(388 3388)"><g transform="matrix(1, 0, 0, 1, -24, -296)" filter="url(#e)"><rect width="271" height="63" rx="5" transform="translate(24 296)" fill="#fff"/></g><text transform="translate(51 14)" fill="#2c2c2c" font-size="13" font-family="Poppins-SemiBold, Poppins" font-weight="600"><tspan x="0" y="14">Jakie masz zainteresowania, </tspan><tspan x="0" y="30">aktywność życiową, pasję?</tspan></text><path d="M16.059,6.394a2.072,2.072,0,1,0-2.072-2.072A2.078,2.078,0,0,0,16.059,6.394ZM5.18,13.129a5.18,5.18,0,1,0,0,10.361,5.18,5.18,0,1,0,0-10.361Zm0,8.806a3.626,3.626,0,1,1,0-7.252,3.626,3.626,0,1,1,0,7.252Zm6.009-10.361,2.487-2.487.829.829a7.258,7.258,0,0,0,5.284,2.176V10.02a5.147,5.147,0,0,1-3.73-1.554L14.09,6.5a2.54,2.54,0,0,0-1.658-.622,1.739,1.739,0,0,0-1.45.622l-2.9,2.9a2.046,2.046,0,0,0-.622,1.45,1.739,1.739,0,0,0,.622,1.45L11.4,15.2v5.18h2.072V13.957l-2.279-2.383Zm8.5,1.554a5.18,5.18,0,1,0,5.18,5.18A5.13,5.13,0,0,0,19.685,13.129Zm0,8.806a3.626,3.626,0,1,1,3.626-3.626A3.671,3.671,0,0,1,19.685,21.935Z" transform="translate(14.327 18.63)" fill="#fcaf03"/></g><g transform="translate(681 3109)"><g transform="matrix(1, 0, 0, 1, -317, -17)" filter="url(#g)"><rect width="271" height="63" rx="5" transform="translate(317 17)" fill="#fff"/></g><text transform="translate(51 14)" fill="#2c2c2c" font-size="13" font-family="Poppins-SemiBold, Poppins" font-weight="600"><tspan x="0" y="14">Co jest dla Ciebie ważne w </tspan><tspan x="0" y="30">miejscu zamieszkania?</tspan></text><path d="M10.241,4.088,2.47,10.941a1.645,1.645,0,0,1-.195.119v6.576a.569.569,0,0,0,.569.569H8.151L6.827,15.617l3.7-2.276L8.39,9.1l5.264,4.864-3.7,2.276,1.419,1.965h6.265a.569.569,0,0,0,.569-.569V11.062a1.659,1.659,0,0,1-.187-.114ZM20.293,8.4,18.206,6.559V1.707a.569.569,0,0,0-.569-.569H15.361a.569.569,0,0,0-.569.569V3.545L11.192.367a1.417,1.417,0,0,0-1.9,0L.189,8.4a.569.569,0,0,0-.043.8l.761.847a.569.569,0,0,0,.8.043L9.864,2.9a.569.569,0,0,1,.753,0l8.154,7.192a.569.569,0,0,0,.8-.043l.761-.847A.569.569,0,0,0,20.293,8.4Z" transform="translate(16.197 22.397)" fill="#fcaf03"/></g><g transform="translate(681 3196)"><g transform="matrix(1, 0, 0, 1, -317, -104)" filter="url(#i)"><rect width="271" height="63" rx="5" transform="translate(317 104)" fill="#fff"/></g><text transform="translate(51 14)" fill="#2c2c2c" font-size="13" font-family="Poppins-SemiBold, Poppins" font-weight="600"><tspan x="0" y="14">Czy pracujesz lub planujesz </tspan><tspan x="0" y="30">pracować z domu?</tspan></text><path d="M18.108,14.3l-4.232-4.232a2.683,2.683,0,0,0-3.086-.5L6.937,5.714V3.469L2.311,0,0,2.313,3.468,6.939H5.712l3.852,3.852a2.689,2.689,0,0,0,.5,3.086L14.3,18.109a1.344,1.344,0,0,0,1.9,0l1.9-1.9a1.35,1.35,0,0,0,0-1.9ZM11.986,8.131a3.8,3.8,0,0,1,2.707,1.12l.7.7a5.116,5.116,0,0,0,1.583-1.066,5.2,5.2,0,0,0,1.37-4.94.433.433,0,0,0-.726-.2L14.931,6.436l-2.454-.408-.408-2.454L14.758.885a.436.436,0,0,0-.206-.73,5.206,5.206,0,0,0-4.937,1.37A5.121,5.121,0,0,0,8.126,5.269l2.967,2.967A3.937,3.937,0,0,1,11.986,8.131ZM8.231,11.095,6.182,9.046.674,14.557a2.313,2.313,0,1,0,3.271,3.271l4.467-4.467a3.881,3.881,0,0,1-.181-2.266Zm-5.92,5.963a.867.867,0,1,1,.867-.867A.87.87,0,0,1,2.311,17.058Z" transform="translate(17.498 22.247)" fill="#fcaf03"/></g></g></svg>