<svg xmlns="http://www.w3.org/2000/svg" width="62.894" height="55.032" viewBox="0 0 62.894 55.032">
  <path id="Icon_awesome-quote-right" data-name="Icon awesome-quote-right" d="M57,2.25H41.274a5.9,5.9,0,0,0-5.9,5.9V23.87a5.9,5.9,0,0,0,5.9,5.9H51.1v7.862A7.869,7.869,0,0,1,43.24,45.49h-.983a2.941,2.941,0,0,0-2.948,2.948v5.9a2.941,2.941,0,0,0,2.948,2.948h.983A19.649,19.649,0,0,0,62.894,37.628V8.146A5.9,5.9,0,0,0,57,2.25Zm-35.378,0H5.9A5.9,5.9,0,0,0,0,8.146V23.87a5.9,5.9,0,0,0,5.9,5.9h9.827v7.862A7.869,7.869,0,0,1,7.862,45.49H6.879a2.941,2.941,0,0,0-2.948,2.948v5.9a2.941,2.941,0,0,0,2.948,2.948h.983A19.649,19.649,0,0,0,27.516,37.628V8.146A5.9,5.9,0,0,0,21.62,2.25Z" transform="translate(0 -2.25)" fill="#40b57e" opacity="0.2"/>
</svg>
